<svg width="61" height="61" viewBox="0 0 61 61" fill="none" xmlns="http://www.w3.org/2000/svg">
<g clip-path="url(#clip0_140_491)">
<path d="M37.3994 24.8337L28.2341 33.4905L23.8355 28.9652C23.3478 28.4632 22.5449 28.4518 22.0433 28.9394C21.5413 29.4276 21.5299 30.23 22.0175 30.7321L27.2931 36.1477C27.7832 36.6408 28.5753 36.6577 29.0858 36.1854L39.1667 26.677C39.4115 26.4461 39.5545 26.1273 39.564 25.7911C39.5734 25.455 39.4488 25.1287 39.2174 24.8844C38.7267 24.3744 37.9178 24.3521 37.3994 24.8337Z" fill="black"/>
<path d="M30.5983 11.5111C20.1236 11.5111 11.6063 20.0284 11.6063 30.5031C11.6063 40.9783 20.1236 49.4956 30.5983 49.4956C41.0736 49.4956 49.5908 40.9783 49.5908 30.5031C49.5908 20.0284 41.0736 11.5111 30.5983 11.5111ZM30.5983 46.9531C21.5219 46.9531 14.1488 39.5671 14.1488 30.5031C14.1488 21.4391 21.5219 14.0536 30.5983 14.0536C39.6837 14.0536 47.0484 21.4183 47.0484 30.5031C47.0484 39.5879 39.6837 46.9531 30.5983 46.9531Z" fill="black"/>
<path d="M56.7351 23.5113L57.1547 15.9728C57.184 15.4668 56.9089 14.9916 56.4555 14.7651L49.7433 11.3711L46.3492 4.65886C46.1183 4.20946 45.646 3.93585 45.1415 3.95969L37.5901 4.36688L31.2975 0.209557C30.8734 -0.0700149 30.3237 -0.0700149 29.8992 0.209557L23.6066 4.36688L16.0686 3.94727C15.5621 3.91748 15.0873 4.19258 14.8609 4.64645L11.4663 11.3586L4.75461 14.7527C4.30471 14.9831 4.03159 15.4554 4.05543 15.9604L4.47454 23.4989L0.317711 29.7915C0.0381393 30.2156 0.0381393 30.7653 0.317711 31.1898L4.46212 37.4949L4.04252 45.0334C4.01322 45.5394 4.28783 46.0146 4.7417 46.241L11.4539 49.6351L14.848 56.3473C15.0784 56.7972 15.5506 57.0703 16.0557 57.0465L23.5942 56.6269L29.8868 60.7837C30.3083 61.0722 30.8635 61.0722 31.2851 60.7837L37.5777 56.6269L45.1162 57.0465C45.6222 57.0758 46.0969 56.8007 46.3239 56.3473L49.718 49.6351L56.4302 46.241C56.8796 46.0101 57.1532 45.5384 57.1293 45.0334L56.7097 37.4949L60.8666 31.2023C61.1461 30.7782 61.1461 30.228 60.8666 29.8039L56.7351 23.5113ZM54.3704 36.4525C54.2154 36.68 54.1434 36.9536 54.1673 37.2282L54.5611 44.3595L48.2178 47.5629C47.976 47.6841 47.7798 47.8807 47.6587 48.1225L44.4548 54.4658L37.3235 54.072C37.0503 54.0621 36.7807 54.1326 36.5478 54.2751L30.5983 58.2035L24.6494 54.2751C24.4428 54.1356 24.1995 54.0601 23.9502 54.0591H23.8866L16.7548 54.4534L13.5514 48.1096C13.4303 47.8678 13.2341 47.6716 12.9918 47.5505L6.63563 44.3595L7.02991 37.2282C7.03984 36.9551 6.96883 36.6854 6.82632 36.4525L2.89841 30.5031L6.82632 24.5536C6.98174 24.3267 7.05375 24.0526 7.02991 23.7785L6.63563 16.6467L12.9794 13.4433C13.2212 13.3221 13.4174 13.126 13.5385 12.8841L16.7419 6.54038L23.8737 6.93467C24.1463 6.9441 24.416 6.87359 24.6494 6.73107L30.5983 2.80317L36.5478 6.73107C36.7752 6.8865 37.0493 6.9585 37.3235 6.93467L44.4548 6.54038L47.6587 12.8841C47.7798 13.126 47.976 13.3221 48.2178 13.4433L54.5611 16.6467L54.1673 23.7785C54.1573 24.0511 54.2284 24.3207 54.3704 24.5536L58.2988 30.5031L54.3704 36.4525Z" fill="black"/>
</g>
<defs>
<clipPath id="clip0_140_491">
<rect width="61" height="61" fill="white"/>
</clipPath>
</defs>
</svg>
