<svg width="21" height="21" viewBox="0 0 21 21" fill="none" xmlns="http://www.w3.org/2000/svg">
<g id="facebook (1) 1" clip-path="url(#clip0_4_303)">
<path id="Vector" d="M18.5391 0H2.46094C1.1039 0 0 1.1039 0 2.46094V18.5391C0 19.8961 1.1039 21 2.46094 21H18.5391C19.8961 21 21 19.8961 21 18.5391V2.46094C21 1.1039 19.8961 0 18.5391 0ZM19.3594 18.5391C19.3594 18.9914 18.9914 19.3594 18.5391 19.3594H13.6992V13.3711H16.3253L16.6314 10.8281H13.6992V8.08008C13.6992 7.37865 14.2283 6.84961 14.9297 6.84961H16.7754V4.4707C16.2896 4.40213 15.3525 4.30664 14.9297 4.30664C13.973 4.30664 13.0141 4.71023 12.2989 5.41374C11.5621 6.13857 11.1562 7.08801 11.1562 8.08729V10.8281H8.49023V13.3711H11.1562V19.3594H2.46094C2.00864 19.3594 1.64062 18.9914 1.64062 18.5391V2.46094C1.64062 2.00864 2.00864 1.64062 2.46094 1.64062H18.5391C18.9914 1.64062 19.3594 2.00864 19.3594 2.46094V18.5391Z" fill="black"/>
</g>
<defs>
<clipPath id="clip0_4_303">
<rect width="21" height="21" fill="white"/>
</clipPath>
</defs>
</svg>
