<svg width="22" height="23" viewBox="0 0 22 23" fill="none" xmlns="http://www.w3.org/2000/svg">
<g clip-path="url(#clip0_4_278)">
<path d="M15.6094 0.5H6.39066C2.86683 0.5 0 3.36683 0 6.89066V16.1093C0 19.6332 2.86683 22.5 6.39066 22.5H15.6093C19.1332 22.5 22 19.6332 22 16.1094V6.89066C22 3.36683 19.1332 0.5 15.6094 0.5ZM20.2812 16.1093C20.2812 18.6854 18.1854 20.7812 15.6094 20.7812H6.39066C3.81455 20.7812 1.71875 18.6854 1.71875 16.1094V6.89066C1.71875 4.31455 3.81455 2.21875 6.39066 2.21875H15.6093C18.1854 2.21875 20.2812 4.31455 20.2812 6.89066V16.1093Z" fill="black"/>
<path d="M11 5.57031C7.73034 5.57031 5.07031 8.23034 5.07031 11.5C5.07031 14.7697 7.73034 17.4297 11 17.4297C14.2697 17.4297 16.9297 14.7697 16.9297 11.5C16.9297 8.23034 14.2697 5.57031 11 5.57031ZM11 15.7109C8.6781 15.7109 6.78906 13.8219 6.78906 11.5C6.78906 9.1781 8.6781 7.28906 11 7.28906C13.3219 7.28906 15.2109 9.1781 15.2109 11.5C15.2109 13.8219 13.3219 15.7109 11 15.7109Z" fill="black"/>
<path d="M17.0156 6.34375C17.4902 6.34375 17.875 5.95899 17.875 5.48438C17.875 5.00976 17.4902 4.625 17.0156 4.625C16.541 4.625 16.1562 5.00976 16.1562 5.48438C16.1562 5.95899 16.541 6.34375 17.0156 6.34375Z" fill="black"/>
</g>
<defs>
<clipPath id="clip0_4_278">
<rect width="22" height="22" fill="white" transform="translate(0 0.5)"/>
</clipPath>
</defs>
</svg>
