<svg width="17" height="17" viewBox="0 0 17 17" fill="none" xmlns="http://www.w3.org/2000/svg">
<g clip-path="url(#clip0_124_178)">
<path d="M2.25235 4.81643C0.750523 6.31823 0.750523 8.7618 2.25232 10.2636L3.05001 9.46592C1.9881 8.40402 1.98807 6.67613 3.05004 5.61417C4.11197 4.55224 5.83985 4.55224 6.90179 5.61414L7.69947 4.81646C6.1977 3.31463 3.75412 3.31466 2.25235 4.81643Z" fill="white"/>
<path d="M3.84133 6.39118C3.20916 7.02334 3.20913 8.052 3.8413 8.6842L4.63901 7.88651C4.54584 7.79334 4.49453 7.66946 4.49453 7.5377C4.49453 7.40597 4.54587 7.28209 4.63904 7.18892C4.73221 7.09574 4.8561 7.04443 4.98782 7.04443C5.11958 7.04443 5.24349 7.09574 5.33664 7.18892L6.13432 6.3912C5.50215 5.75901 4.4735 5.75901 3.84133 6.39118Z" fill="white"/>
<path d="M13.7482 4.43512L11.855 2.54846L7.92331 6.47365L9.44752 8.04779C9.19208 8.50124 8.63784 9.36988 7.69327 10.3145C6.74859 11.2592 5.8736 11.8197 5.41581 12.0792L3.87255 10.5556L0.00219727 14.4029L1.88504 16.2983C2.60479 17.0181 3.69992 17.2046 4.61014 16.7625C5.99915 16.0879 8.0954 14.8431 10.1942 12.7443C12.2931 10.6455 13.5378 8.54922 14.2124 7.16021C14.3723 6.83107 14.4499 6.47786 14.4499 6.1269C14.4499 5.50718 14.2077 4.89463 13.7482 4.43512ZM13.1977 6.66731C12.5609 7.97844 11.3845 9.95864 9.39655 11.9466C7.40862 13.9345 5.42842 15.1109 4.11729 15.7477C3.63929 15.9799 3.06281 15.8806 2.68414 15.5019L1.59739 14.4079L3.87537 12.1436L5.19009 13.4415L5.54183 13.2849C5.59899 13.2595 6.95941 12.6438 8.4911 11.1121C10.0238 9.57946 10.6266 8.23053 10.6515 8.17385L10.804 7.82682L9.50671 6.48703L11.8558 4.14177L12.9511 5.23325C13.3306 5.61328 13.4298 6.18951 13.1977 6.66731Z" fill="white"/>
</g>
<defs>
<clipPath id="clip0_124_178">
<rect width="17" height="17" fill="white"/>
</clipPath>
</defs>
</svg>
